<?xml version="1.0" encoding="UTF-8"?>
<svg xmlns="http://www.w3.org/2000/svg" xmlns:xlink="http://www.w3.org/1999/xlink" width="84px" height="23px" viewBox="0 0 82 23" version="1.1">
<g id="surface1">
<path style=" stroke:none;fill-rule:nonzero;fill:rgb(94.901961%,38.431373%,0.784314%);fill-opacity:1;" d="M 1.855469 11.308594 L 1.925781 22.015625 L 79.804688 22.015625 L 79.804688 0.703125 L 1.789062 0.601562 Z M 79.121094 11.359375 L 79.121094 21.511719 L 2.332031 21.511719 L 2.332031 1.207031 L 79.121094 1.207031 Z M 79.121094 11.359375 "/>
<path style=" stroke:none;fill-rule:nonzero;fill:rgb(94.901961%,38.431373%,0.784314%);fill-opacity:1;" d="M 28.746094 10.859375 L 28.746094 16.488281 L 78.320312 16.488281 L 78.238281 10.90625 L 78.167969 5.328125 L 28.746094 5.226562 Z M 38.464844 7.277344 C 41.136719 9.207031 39.3125 11.863281 35.335938 11.863281 L 33.375 11.863281 L 33.375 14.878906 L 30.105469 14.878906 L 30.105469 9.449219 L 33.238281 9.449219 C 35.839844 9.449219 36.371094 9.398438 36.371094 9.148438 C 36.371094 8.898438 35.839844 8.847656 33.238281 8.847656 L 30.105469 8.847656 L 30.105469 6.433594 L 37.296875 6.433594 Z M 49.222656 7.378906 C 50.585938 8.363281 50.695312 8.613281 50.355469 10.101562 C 50.230469 10.6875 50.070312 10.859375 49.632812 10.859375 C 49.101562 10.859375 49.117188 10.898438 49.808594 11.429688 C 50.503906 11.960938 50.542969 12.113281 50.476562 13.390625 L 50.394531 14.777344 L 47.128906 14.777344 L 47.042969 13.871094 C 46.824219 11.539062 44.269531 11.078125 44.269531 13.371094 L 44.269531 14.878906 L 41 14.878906 L 41 9.449219 L 43.996094 9.449219 C 46.527344 9.449219 46.992188 9.398438 46.992188 9.136719 C 46.992188 8.957031 46.785156 8.835938 46.511719 8.855469 C 46.257812 8.875 44.90625 8.886719 43.519531 8.867188 L 41 8.847656 L 41 6.433594 L 47.929688 6.433594 Z M 55.433594 7.640625 L 55.433594 8.847656 L 52.164062 8.847656 L 52.164062 6.433594 L 55.433594 6.433594 Z M 62.296875 7.175781 L 63.328125 7.921875 L 63.328125 6.433594 L 66.871094 6.433594 L 66.871094 11.863281 L 65.179688 11.863281 C 63.507812 11.863281 63.464844 11.851562 62.046875 10.816406 L 60.605469 9.761719 L 60.605469 14.878906 L 57.066406 14.878906 L 57.066406 6.433594 L 59.164062 6.433594 C 61.21875 6.433594 61.289062 6.453125 62.296875 7.175781 Z M 77.488281 7.640625 L 77.488281 8.847656 L 67.957031 8.847656 L 67.957031 6.433594 L 77.488281 6.433594 Z M 55.433594 12.164062 L 55.433594 14.878906 L 52.164062 14.878906 L 52.164062 9.449219 L 55.433594 9.449219 Z M 74.21875 12.164062 L 74.21875 14.878906 L 70.953125 14.878906 L 70.953125 9.449219 L 74.21875 9.449219 Z M 66.871094 13.671875 L 66.871094 14.878906 L 63.328125 14.878906 L 63.328125 12.464844 L 66.871094 12.464844 Z M 66.871094 13.671875 "/>
<path style=" stroke:none;fill-rule:nonzero;fill:rgb(94.901961%,38.431373%,0.784314%);fill-opacity:1;" d="M 3.421875 6.9375 L 3.421875 8.445312 L 7.507812 8.445312 L 7.507812 5.425781 L 3.421875 5.425781 Z M 3.421875 6.9375 "/>
<path style=" stroke:none;fill-rule:nonzero;fill:rgb(94.901961%,38.431373%,0.784314%);fill-opacity:1;" d="M 10.503906 6.835938 L 10.503906 8.242188 L 16.765625 8.242188 L 16.765625 16.488281 L 20.847656 16.488281 L 20.847656 8.242188 L 23.027344 8.242188 L 23.027344 16.488281 L 27.113281 16.488281 L 27.113281 7.527344 L 25.667969 6.472656 L 24.238281 5.425781 L 10.503906 5.425781 Z M 10.503906 6.835938 "/>
<path style=" stroke:none;fill-rule:nonzero;fill:rgb(94.901961%,38.431373%,0.784314%);fill-opacity:1;" d="M 3.421875 12.964844 L 3.421875 16.488281 L 7.507812 16.488281 L 7.507812 9.449219 L 3.421875 9.449219 Z M 3.421875 12.964844 "/>
<path style=" stroke:none;fill-rule:nonzero;fill:rgb(94.901961%,38.431373%,0.784314%);fill-opacity:1;" d="M 10.503906 12.964844 L 10.503906 16.488281 L 14.3125 16.488281 L 14.3125 9.449219 L 10.503906 9.449219 Z M 10.503906 12.964844 "/>
<path style=" stroke:none;fill-rule:nonzero;fill:rgb(94.901961%,38.431373%,0.784314%);fill-opacity:1;" d="M 14.371094 17.84375 C 14.421875 18.0625 14.804688 18.246094 15.402344 18.316406 L 16.355469 18.445312 L 15.335938 18.464844 C 14.121094 18.496094 13.660156 20.105469 14.859375 20.105469 C 15.253906 20.105469 15.402344 19.972656 15.402344 19.613281 C 15.402344 19.210938 15.554688 19.109375 16.289062 19.058594 C 17.269531 18.988281 17.648438 18.335938 17.023438 17.785156 C 16.519531 17.328125 14.246094 17.378906 14.371094 17.84375 Z M 14.371094 17.84375 "/>
<path style=" stroke:none;fill-rule:nonzero;fill:rgb(94.901961%,38.431373%,0.784314%);fill-opacity:1;" d="M 17.851562 18.796875 C 17.851562 19.972656 17.910156 20.105469 18.398438 20.105469 C 18.792969 20.105469 18.941406 19.972656 18.941406 19.613281 C 18.941406 19.019531 19.640625 19.109375 19.910156 19.722656 C 20.265625 20.546875 20.824219 20.136719 20.808594 19.050781 C 20.792969 17.722656 20.535156 17.492188 19.050781 17.492188 L 17.851562 17.492188 Z M 17.851562 18.796875 "/>
<path style=" stroke:none;fill-rule:nonzero;fill:rgb(94.901961%,38.431373%,0.784314%);fill-opacity:1;" d="M 21.664062 18.796875 C 21.664062 19.824219 21.746094 20.105469 22.074219 20.105469 C 22.402344 20.105469 22.480469 19.824219 22.480469 18.796875 C 22.480469 17.773438 22.402344 17.492188 22.074219 17.492188 C 21.746094 17.492188 21.664062 17.773438 21.664062 18.796875 Z M 21.664062 18.796875 "/>
<path style=" stroke:none;fill-rule:nonzero;fill:rgb(94.901961%,38.431373%,0.784314%);fill-opacity:1;" d="M 23.296875 18.796875 C 23.296875 19.972656 23.355469 20.105469 23.84375 20.105469 C 24.292969 20.105469 24.386719 19.972656 24.386719 19.378906 C 24.386719 18.75 24.445312 18.6875 24.796875 18.898438 C 25.027344 19.039062 25.203125 19.363281 25.203125 19.621094 C 25.203125 19.972656 25.355469 20.105469 25.75 20.105469 C 26.242188 20.105469 26.292969 19.972656 26.292969 18.796875 C 26.292969 17.621094 26.242188 17.492188 25.75 17.492188 C 25.453125 17.492188 25.203125 17.601562 25.203125 17.734375 C 25.203125 17.925781 25.140625 17.925781 24.878906 17.734375 C 23.914062 17.019531 23.296875 17.429688 23.296875 18.796875 Z M 23.296875 18.796875 "/>
<path style=" stroke:none;fill-rule:nonzero;fill:rgb(94.901961%,38.431373%,0.784314%);fill-opacity:1;" d="M 26.839844 17.890625 C 26.839844 18.113281 27.015625 18.296875 27.246094 18.296875 C 27.546875 18.296875 27.65625 18.527344 27.65625 19.199219 C 27.65625 19.972656 27.738281 20.105469 28.199219 20.105469 C 28.664062 20.105469 28.746094 19.972656 28.746094 19.199219 C 28.746094 18.425781 28.828125 18.296875 29.289062 18.296875 C 29.65625 18.296875 29.835938 18.164062 29.835938 17.890625 C 29.835938 17.539062 29.65625 17.492188 28.335938 17.492188 C 27.015625 17.492188 26.839844 17.539062 26.839844 17.890625 Z M 26.839844 17.890625 "/>
<path style=" stroke:none;fill-rule:nonzero;fill:rgb(94.901961%,38.431373%,0.784314%);fill-opacity:1;" d="M 30.378906 18.796875 C 30.378906 19.824219 30.460938 20.105469 30.789062 20.105469 C 31.113281 20.105469 31.195312 19.824219 31.195312 18.796875 C 31.195312 17.773438 31.113281 17.492188 30.789062 17.492188 C 30.460938 17.492188 30.378906 17.773438 30.378906 18.796875 Z M 30.378906 18.796875 "/>
<path style=" stroke:none;fill-rule:nonzero;fill:rgb(94.901961%,38.431373%,0.784314%);fill-opacity:1;" d="M 32.011719 18.796875 C 32.011719 19.972656 32.066406 20.105469 32.558594 20.105469 C 33.007812 20.105469 33.101562 19.972656 33.101562 19.378906 C 33.101562 18.75 33.15625 18.6875 33.511719 18.898438 C 33.742188 19.039062 33.917969 19.363281 33.917969 19.621094 C 33.917969 19.972656 34.070312 20.105469 34.464844 20.105469 C 34.957031 20.105469 35.007812 19.972656 35.007812 18.796875 C 35.007812 17.621094 34.957031 17.492188 34.464844 17.492188 C 34.164062 17.492188 33.917969 17.601562 33.917969 17.734375 C 33.917969 17.925781 33.851562 17.925781 33.59375 17.734375 C 32.628906 17.019531 32.011719 17.429688 32.011719 18.796875 Z M 32.011719 18.796875 "/>
<path style=" stroke:none;fill-rule:nonzero;fill:rgb(94.901961%,38.431373%,0.784314%);fill-opacity:1;" d="M 36.003906 17.863281 C 34.777344 18.867188 35.605469 20.105469 37.511719 20.105469 L 38.820312 20.105469 L 38.820312 19.300781 C 38.820312 18.515625 38.792969 18.496094 37.867188 18.496094 C 37.199219 18.496094 36.914062 18.585938 36.914062 18.796875 C 36.914062 18.960938 37.039062 19.101562 37.1875 19.101562 C 37.335938 19.101562 37.460938 19.191406 37.460938 19.300781 C 37.460938 19.410156 37.28125 19.5 37.050781 19.5 C 36.003906 19.5 36.589844 18.324219 37.664062 18.253906 C 38.371094 18.214844 38.714844 18.085938 38.769531 17.84375 C 38.902344 17.328125 36.640625 17.339844 36.003906 17.863281 Z M 36.003906 17.863281 "/>
<path style=" stroke:none;fill-rule:nonzero;fill:rgb(94.901961%,38.431373%,0.784314%);fill-opacity:1;" d="M 41.597656 17.734375 C 41 18.175781 41.261719 18.296875 42.769531 18.296875 C 44.089844 18.296875 44.269531 18.246094 44.269531 17.890625 C 44.269531 17.421875 42.183594 17.300781 41.597656 17.734375 Z M 41.597656 17.734375 "/>
<path style=" stroke:none;fill-rule:nonzero;fill:rgb(94.901961%,38.431373%,0.784314%);fill-opacity:1;" d="M 45.140625 17.734375 C 44.960938 17.863281 44.8125 18.347656 44.8125 18.796875 C 44.8125 19.84375 45.179688 20.105469 46.636719 20.105469 C 47.496094 20.105469 47.808594 20.023438 47.808594 19.800781 C 47.808594 19.589844 47.523438 19.5 46.855469 19.5 C 46.335938 19.5 45.902344 19.410156 45.902344 19.300781 C 45.902344 19.191406 46.144531 19.101562 46.445312 19.101562 C 47.195312 19.101562 47.140625 18.546875 46.378906 18.4375 C 45.996094 18.386719 46.160156 18.335938 46.785156 18.324219 C 47.617188 18.304688 47.808594 18.214844 47.808594 17.890625 C 47.808594 17.421875 45.726562 17.300781 45.140625 17.734375 Z M 45.140625 17.734375 "/>
<path style=" stroke:none;fill-rule:nonzero;fill:rgb(94.901961%,38.431373%,0.784314%);fill-opacity:1;" d="M 48.351562 18.796875 C 48.351562 20.152344 49.265625 20.839844 49.496094 19.652344 C 49.535156 19.402344 49.699219 19.199219 49.851562 19.199219 C 50 19.199219 50.246094 19.402344 50.394531 19.652344 C 50.886719 20.476562 51.347656 20.1875 51.347656 19.039062 C 51.347656 17.753906 51.046875 17.492188 49.523438 17.492188 L 48.351562 17.492188 Z M 48.351562 18.796875 "/>
<path style=" stroke:none;fill-rule:nonzero;fill:rgb(94.901961%,38.431373%,0.784314%);fill-opacity:1;" d="M 52.164062 18.558594 C 52.164062 19.84375 52.464844 20.105469 53.988281 20.105469 L 55.160156 20.105469 L 55.160156 18.796875 C 55.160156 17.621094 55.105469 17.492188 54.617188 17.492188 C 54.136719 17.492188 54.070312 17.621094 54.070312 18.507812 C 54.070312 19.953125 53.160156 19.894531 53.035156 18.445312 C 52.914062 17.019531 52.164062 17.121094 52.164062 18.558594 Z M 52.164062 18.558594 "/>
<path style=" stroke:none;fill-rule:nonzero;fill:rgb(94.901961%,38.431373%,0.784314%);fill-opacity:1;" d="M 55.707031 18.796875 C 55.707031 19.972656 55.757812 20.105469 56.25 20.105469 C 56.738281 20.105469 56.796875 19.972656 56.796875 18.796875 C 56.796875 17.621094 56.738281 17.492188 56.25 17.492188 C 55.757812 17.492188 55.707031 17.621094 55.707031 18.796875 Z M 55.707031 18.796875 "/>
<path style=" stroke:none;fill-rule:nonzero;fill:rgb(94.901961%,38.431373%,0.784314%);fill-opacity:1;" d="M 57.667969 17.734375 C 57.488281 17.863281 57.339844 18.347656 57.339844 18.796875 C 57.339844 19.84375 57.707031 20.105469 59.164062 20.105469 C 60.023438 20.105469 60.335938 20.023438 60.335938 19.800781 C 60.335938 19.589844 60.046875 19.5 59.382812 19.5 C 58.507812 19.5 58.429688 19.449219 58.429688 18.898438 C 58.429688 18.347656 58.507812 18.296875 59.382812 18.296875 C 60.160156 18.296875 60.335938 18.214844 60.335938 17.890625 C 60.335938 17.421875 58.25 17.300781 57.667969 17.734375 Z M 57.667969 17.734375 "/>
<path style=" stroke:none;fill-rule:nonzero;fill:rgb(94.901961%,38.431373%,0.784314%);fill-opacity:1;" d="M 61.207031 17.734375 C 61.027344 17.863281 60.878906 18.347656 60.878906 18.796875 C 60.878906 19.84375 61.246094 20.105469 62.703125 20.105469 C 64.242188 20.105469 64.363281 19.5625 62.851562 19.441406 C 61.96875 19.371094 61.914062 19.339844 62.445312 19.210938 C 62.785156 19.121094 63.058594 18.9375 63.058594 18.789062 C 63.058594 18.648438 62.785156 18.488281 62.445312 18.4375 C 62.0625 18.386719 62.226562 18.335938 62.851562 18.324219 C 63.683594 18.304688 63.875 18.214844 63.875 17.890625 C 63.875 17.421875 61.792969 17.300781 61.207031 17.734375 Z M 61.207031 17.734375 "/>
<path style=" stroke:none;fill-rule:nonzero;fill:rgb(94.901961%,38.431373%,0.784314%);fill-opacity:1;" d="M 64.867188 17.863281 C 64.050781 18.527344 64.28125 19.101562 65.371094 19.101562 C 65.902344 19.101562 66.324219 19.191406 66.324219 19.300781 C 66.324219 19.410156 65.902344 19.5 65.371094 19.5 C 64.703125 19.5 64.417969 19.589844 64.417969 19.800781 C 64.417969 20.296875 67.03125 20.226562 67.398438 19.710938 C 68.027344 18.859375 67.765625 18.496094 66.527344 18.464844 L 65.371094 18.4375 L 66.460938 18.316406 C 67.195312 18.234375 67.578125 18.085938 67.628906 17.84375 C 67.765625 17.328125 65.507812 17.339844 64.867188 17.863281 Z M 64.867188 17.863281 "/>
<path style=" stroke:none;fill-rule:nonzero;fill:rgb(94.901961%,38.431373%,0.784314%);fill-opacity:1;" d="M 41.273438 18.796875 C 41.273438 19.011719 41.558594 19.101562 42.226562 19.101562 C 42.757812 19.101562 43.179688 19.191406 43.179688 19.300781 C 43.179688 19.410156 42.757812 19.5 42.226562 19.5 C 41.558594 19.5 41.273438 19.589844 41.273438 19.800781 C 41.273438 20.175781 43.449219 20.226562 43.941406 19.863281 C 44.90625 19.148438 44.335938 18.496094 42.769531 18.496094 C 41.628906 18.496094 41.273438 18.566406 41.273438 18.796875 Z M 41.273438 18.796875 "/>
</g>
</svg>
